PathFileType	4	(X/Y/Z)	C:\Users\italobelli\Desktop\GitHub\PTbot_officialCBL\Personal_Results\FLX22_noisy1.trc
DataRate	CameraRate	NumFrames	NumMarkers	Units	OrigDataRate	OrigDataStartFrame	OrigNumFrames
106.125000	106.125000	21	9	m	106.125000	319	850
Frame#	Time		gu		centelbow		EpL		centpxt8		centijc7		ij		ts		aa		ai
			X1	Y1	Z1	X2	Y2	Z2	X3	Y3	Z3	X4	Y4	Z4	X5	Y5	Z5	X6	Y6	Z6	X7	Y7	Z7	X8	Y8	Z8	X9	Y9	Z9

319	2.9965	-0.089737	0.056483	0.11063	0.056096	0.20822	0.21948	0.032767	0.22924	0.21218	-0.046816	-0.15316	-0.008669	-0.046816	0.031938	-0.008669	0	0	0	-0.14949	-0.014934	0.057514	-0.11418	0.077937	0.12353	-0.1221	-0.08121	0.14554
320	3.0059	-0.089981	0.05651	0.11048	0.054818	0.20941	0.21903	0.031371	0.23023	0.21158	-0.046816	-0.15316	-0.008669	-0.046816	0.031938	-0.008669	0	0	0	-0.14935	-0.015146	0.057504	-0.11449	0.077978	0.12328	-0.12185	-0.081081	0.14567
321	3.0153	-0.090223	0.056535	0.11033	0.053534	0.21057	0.21858	0.029973	0.23119	0.21098	-0.046816	-0.15316	-0.008669	-0.046816	0.031938	-0.008669	0	0	0	-0.1492	-0.015356	0.057489	-0.1148	0.078017	0.12304	-0.1216	-0.080955	0.14581
322	3.0247	-0.090463	0.056558	0.11019	0.052244	0.21172	0.21813	0.02857	0.23214	0.2104	-0.046816	-0.15316	-0.008669	-0.046816	0.031938	-0.008669	0	0	0	-0.14905	-0.015565	0.057467	-0.11512	0.078055	0.1228	-0.12134	-0.080831	0.14593
323	3.0342	-0.090702	0.056579	0.11006	0.050946	0.21284	0.21769	0.027163	0.23306	0.20982	-0.046816	-0.15316	-0.008669	-0.046816	0.031938	-0.008669	0	0	0	-0.14889	-0.015772	0.057439	-0.11543	0.078093	0.12256	-0.12108	-0.08071	0.14606
324	3.0436	-0.09094	0.056598	0.10992	0.049642	0.21394	0.21725	0.025753	0.23397	0.20924	-0.046816	-0.15316	-0.008669	-0.046816	0.031938	-0.008669	0	0	0	-0.14872	-0.015978	0.057406	-0.11575	0.07813	0.12233	-0.12081	-0.080592	0.14618
325	3.053	-0.091176	0.056616	0.10979	0.048333	0.21502	0.21682	0.02434	0.23486	0.20868	-0.046816	-0.15316	-0.008669	-0.046816	0.031938	-0.008669	0	0	0	-0.14855	-0.016182	0.057367	-0.11606	0.078166	0.1221	-0.12055	-0.080476	0.1463
326	3.0624	-0.091411	0.056632	0.10967	0.04702	0.21608	0.21639	0.022925	0.23574	0.20812	-0.046816	-0.15316	-0.008669	-0.046816	0.031938	-0.008669	0	0	0	-0.14837	-0.016385	0.057323	-0.11638	0.078201	0.12187	-0.12028	-0.080363	0.14641
327	3.0718	-0.091644	0.056647	0.10954	0.045702	0.21712	0.21597	0.021508	0.2366	0.20757	-0.046816	-0.15316	-0.008669	-0.046816	0.031938	-0.008669	0	0	0	-0.14819	-0.016586	0.057274	-0.1167	0.078236	0.12165	-0.12001	-0.080252	0.14652
328	3.0813	-0.091876	0.05666	0.10943	0.044381	0.21814	0.21555	0.020091	0.23744	0.20702	-0.046816	-0.15316	-0.008669	-0.046816	0.031938	-0.008669	0	0	0	-0.148	-0.016785	0.05722	-0.11702	0.07827	0.12142	-0.11974	-0.080143	0.14663
329	3.0907	-0.092107	0.056672	0.10931	0.043058	0.21914	0.21514	0.018674	0.23827	0.20648	-0.046816	-0.15316	-0.008669	-0.046816	0.031938	-0.008669	0	0	0	-0.1478	-0.016983	0.057162	-0.11734	0.078304	0.12121	-0.11947	-0.080036	0.14674
330	3.1001	-0.092337	0.056683	0.1092	0.041732	0.22012	0.21473	0.017257	0.23909	0.20595	-0.046816	-0.15316	-0.008669	-0.046816	0.031938	-0.008669	0	0	0	-0.1476	-0.017179	0.057099	-0.11767	0.078337	0.12099	-0.1192	-0.079931	0.14684
331	3.1095	-0.092566	0.056692	0.10909	0.040405	0.22109	0.21433	0.015841	0.23989	0.20543	-0.046816	-0.15316	-0.008669	-0.046816	0.031938	-0.008669	0	0	0	-0.1474	-0.017373	0.057032	-0.11799	0.078369	0.12078	-0.11893	-0.079828	0.14694
332	3.119	-0.092793	0.056701	0.10898	0.039078	0.22204	0.21393	0.014428	0.24067	0.20491	-0.046816	-0.15316	-0.008669	-0.046816	0.031938	-0.008669	0	0	0	-0.14719	-0.017565	0.056961	-0.11832	0.078401	0.12057	-0.11866	-0.079726	0.14703
333	3.1284	-0.093019	0.056709	0.10888	0.037751	0.22297	0.21354	0.013017	0.24144	0.2044	-0.046816	-0.15316	-0.008669	-0.046816	0.031938	-0.008669	0	0	0	-0.14698	-0.017755	0.056887	-0.11864	0.078432	0.12037	-0.11839	-0.079627	0.14713
334	3.1378	-0.093245	0.056716	0.10877	0.036424	0.22388	0.21315	0.011609	0.2422	0.20389	-0.046816	-0.15316	-0.008669	-0.046816	0.031938	-0.008669	0	0	0	-0.14677	-0.017944	0.056809	-0.11897	0.078462	0.12017	-0.11811	-0.079529	0.14722
335	3.1472	-0.093469	0.056722	0.10867	0.035099	0.22478	0.21276	0.010205	0.24294	0.2034	-0.046816	-0.15316	-0.008669	-0.046816	0.031938	-0.008669	0	0	0	-0.14655	-0.01813	0.056728	-0.11929	0.078492	0.11997	-0.11784	-0.079433	0.14731
336	3.1567	-0.093692	0.056727	0.10858	0.033776	0.22566	0.21238	0.0088056	0.24367	0.2029	-0.046816	-0.15316	-0.008669	-0.046816	0.031938	-0.008669	0	0	0	-0.14633	-0.018315	0.056643	-0.11962	0.078521	0.11977	-0.11757	-0.079338	0.14739
337	3.1661	-0.093914	0.056732	0.10848	0.032456	0.22652	0.212	0.0074114	0.24439	0.20242	-0.046816	-0.15316	-0.008669	-0.046816	0.031938	-0.008669	0	0	0	-0.14611	-0.018497	0.056557	-0.11995	0.07855	0.11958	-0.1173	-0.079245	0.14748
338	3.1755	-0.094135	0.056736	0.10839	0.031139	0.22737	0.21163	0.0060231	0.24509	0.20194	-0.046816	-0.15316	-0.008669	-0.046816	0.031938	-0.008669	0	0	0	-0.14589	-0.018677	0.056467	-0.12028	0.078578	0.11939	-0.11704	-0.079152	0.14756
339	3.1849	-0.094356	0.05674	0.1083	0.029826	0.22821	0.21126	0.0046413	0.24578	0.20147	-0.046816	-0.15316	-0.008669	-0.046816	0.031938	-0.008669	0	0	0	-0.14566	-0.018855	0.056375	-0.1206	0.078606	0.1192	-0.11677	-0.079061	0.14764
